<svg width="91" height="91" viewBox="0 0 91 91" fill="none" xmlns="http://www.w3.org/2000/svg">
<circle opacity="0.2" cx="45.5" cy="45.5" r="45.5" fill="#EB5B25"/>
<ellipse cx="30" cy="30" rx="30" ry="30" transform="translate(16 16)" fill="#EB5B25"/>
<path d="M0 -1C-0.552285 -1 -1 -0.552285 -1 0C-1 0.552285 -0.552285 1 0 1V-1ZM21.7071 0.707107C22.0976 0.316583 22.0976 -0.316583 21.7071 -0.707107L15.3431 -7.07107C14.9526 -7.46159 14.3195 -7.46159 13.9289 -7.07107C13.5384 -6.68054 13.5384 -6.04738 13.9289 -5.65685L19.5858 0L13.9289 5.65685C13.5384 6.04738 13.5384 6.68054 13.9289 7.07107C14.3195 7.46159 14.9526 7.46159 15.3431 7.07107L21.7071 0.707107ZM0 1H21V-1H0V1Z" transform="translate(35 38)" fill="white"/>
<path d="M0 -1C-0.552285 -1 -1 -0.552285 -1 0C-1 0.552285 -0.552285 1 0 1V-1ZM21.7071 0.707107C22.0976 0.316583 22.0976 -0.316583 21.7071 -0.707107L15.3431 -7.07107C14.9526 -7.46159 14.3195 -7.46159 13.9289 -7.07107C13.5384 -6.68054 13.5384 -6.04738 13.9289 -5.65685L19.5858 0L13.9289 5.65685C13.5384 6.04738 13.5384 6.68054 13.9289 7.07107C14.3195 7.46159 14.9526 7.46159 15.3431 7.07107L21.7071 0.707107ZM0 1H21V-1H0V1Z" transform="translate(56 53) scale(-1 1)" fill="white"/>
</svg>
