<svg width="91" height="91" viewBox="0 0 91 91" fill="none" xmlns="http://www.w3.org/2000/svg">
<circle opacity="0.2" cx="45.5" cy="45.5" r="45.5" fill="#EB5B25"/>
<ellipse cx="30" cy="30" rx="30" ry="30" transform="translate(16 16)" fill="#EB5B25"/>
<path d="M1.27834 4.20986C1.39424 3.66988 1.05046 3.13817 0.510469 3.02227C-0.0295162 2.90636 -0.561221 3.25015 -0.677126 3.79014L1.27834 4.20986ZM1.8009 18L2.74065 17.6581L1.8009 18ZM17.8004 19.5L16.9428 18.9856L17.8004 19.5ZM21.2915 -0.132962C21.218 -0.680343 20.7148 -1.06455 20.1674 -0.991121C19.62 -0.917688 19.2358 -0.414419 19.3092 0.132962L21.2915 -0.132962ZM-0.677126 3.79014C-1.27021 6.55323 -1.19975 12.677 0.86116 18.3419L2.74065 17.6581C0.799717 12.323 0.769271 6.58152 1.27834 4.20986L-0.677126 3.79014ZM0.86116 18.3419C2.09991 21.7469 5.51087 23.9126 9.02776 24.387C12.5779 24.8658 16.4751 23.6531 18.6579 20.0144L16.9428 18.9856C15.2588 21.7928 12.2374 22.8017 9.29508 22.4049C6.31948 22.0036 3.66408 20.1964 2.74065 17.6581L0.86116 18.3419ZM18.6579 20.0144C20.2881 17.2969 21.0246 12.9827 21.3271 9.10816C21.6326 5.19523 21.5101 1.49643 21.2915 -0.132962L19.3092 0.132962C19.504 1.58443 19.6311 5.13563 19.3332 8.95249C19.0322 12.8077 18.312 16.7031 16.9428 18.9856L18.6579 20.0144Z" transform="translate(35.6992 40)" fill="white"/>
<line x1="1" y1="-1" x2="17.1817" y2="-1" transform="translate(50 30.8184) rotate(90)" stroke="white" stroke-width="2" stroke-linecap="round"/>
<line x1="1" y1="-1" x2="18.9999" y2="-1" transform="translate(45 29) rotate(90)" stroke="white" stroke-width="2" stroke-linecap="round"/>
<line x1="1" y1="-1" x2="17.1817" y2="-1" transform="translate(40 30.8184) rotate(90)" stroke="white" stroke-width="2" stroke-linecap="round"/>
</svg>
