<svg width="91" height="91" viewBox="0 0 91 91" fill="none" xmlns="http://www.w3.org/2000/svg">
<circle opacity="0.2" cx="45.5" cy="45.5" r="45.5" fill="#EB5B25"/>
<ellipse cx="30" cy="30" rx="30" ry="30" transform="translate(16 16)" fill="#EB5B25"/>
<path d="M32.0092 10.7008L32.5955 9.8907L32.0093 10.7008L35.3019 13.0835C35.654 13.3383 35.8012 13.7914 35.6661 14.2045L34.4028 18.0675C34.2047 18.6734 34.2047 19.3266 34.4028 19.9325L35.6661 23.7955C35.8012 24.2086 35.654 24.6617 35.3019 24.9165L32.0093 27.2992C31.4928 27.6729 31.1089 28.2013 30.9131 28.808L29.6645 32.6758C29.5309 33.0894 29.1455 33.3694 28.7109 33.3685L24.6466 33.3608C24.0091 33.3596 23.3879 33.5615 22.8729 33.9371L19.5893 36.3323C19.2382 36.5885 18.7618 36.5885 18.4107 36.3323L15.1271 33.9371L14.5378 34.745L15.1271 33.9371C14.6121 33.5615 13.9909 33.3596 13.3534 33.3608L9.28908 33.3685C8.85446 33.3694 8.46906 33.0894 8.33554 32.6758L7.08695 28.808C6.89112 28.2013 6.50716 27.6729 5.99075 27.2992L2.69808 24.9165C2.34598 24.6617 2.19877 24.2086 2.33386 23.7955L3.59717 19.9325C3.7953 19.3266 3.7953 18.6734 3.59717 18.0675L2.33386 14.2045C2.19877 13.7914 2.34598 13.3383 2.69808 13.0835L5.99075 10.7008C6.50716 10.3271 6.89112 9.79867 7.08695 9.19205L8.33554 5.32425C8.46906 4.91063 8.85446 4.63063 9.28908 4.63145L13.3534 4.63919C13.9909 4.6404 14.6121 4.43854 15.1271 4.06289L18.4107 1.66767C18.7618 1.41153 19.2382 1.41153 19.5893 1.66767L22.8729 4.06288C23.3879 4.43854 24.0091 4.6404 24.6466 4.63919L28.7109 4.63145C29.1455 4.63063 29.5309 4.91063 29.6645 5.32425L30.9131 9.19205C31.1089 9.79867 31.4928 10.3271 32.0092 10.7008Z" transform="translate(27 27)" stroke="white" stroke-width="2" stroke-linecap="round" stroke-linejoin="round"/>
<circle cx="11.9706" cy="11.9706" r="10.9706" transform="translate(34 34)" stroke="white" stroke-width="2"/>
<path d="M0.8 1.9C0.468629 1.45817 -0.158172 1.36863 -0.6 1.7C-1.04183 2.03137 -1.13137 2.65817 -0.8 3.1L0.8 1.9ZM3 6.5L2.2 7.1L3.08159 8.27546L3.85166 7.0241L3 6.5ZM7.85166 0.524097C8.14111 0.0537395 7.99446 -0.562207 7.5241 -0.851658C7.05374 -1.14111 6.43779 -0.994455 6.14834 -0.524097L7.85166 0.524097ZM-0.8 3.1L2.2 7.1L3.8 5.9L0.8 1.9L-0.8 3.1ZM3.85166 7.0241L7.85166 0.524097L6.14834 -0.524097L2.14834 5.9759L3.85166 7.0241Z" transform="translate(43 43)" fill="white"/>
</svg>
