<svg width="60" height="60" viewBox="0 0 60 60" fill="none" xmlns="http://www.w3.org/2000/svg">
<circle opacity="0.2" cx="30" cy="30" r="30" fill="#EB5B25"/>
<ellipse cx="19.7802" cy="19.7802" rx="19.7802" ry="19.7802" transform="translate(10.5493 10.5496)" fill="#EB5B25"/>
<path d="M4.35714 2.67123C4.35714 3.59164 3.60821 4.34246 2.67857 4.34246C1.74893 4.34246 1 3.59164 1 2.67123C1 1.75082 1.74893 1 2.67857 1C3.60821 1 4.35714 1.75082 4.35714 2.67123Z" transform="translate(25.97 31.5889) rotate(41.8367)" stroke="white" stroke-width="2"/>
<path d="M4.35714 2.67123C4.35714 3.59164 3.60821 4.34246 2.67857 4.34246C1.74893 4.34246 1 3.59164 1 2.67123C1 1.75082 1.74893 1 2.67857 1C3.60821 1 4.35714 1.75082 4.35714 2.67123Z" transform="translate(33.9741 22.6482) rotate(41.8367)" stroke="white" stroke-width="2"/>
<path fill-rule="evenodd" clip-rule="evenodd" d="M6.5 2.00006C3.96118 2.00014 2.00007 3.93246 2.0001 6.2C1.99999 7.0216 2.25205 7.7885 2.69276 8.43926L2.68971 8.44134C3.60021 9.7768 4.20853 11.005 4.22837 12.3697C4.24801 13.7349 3.67647 15.0449 2.69772 16.546L2.69266 16.5407C2.25194 17.1915 2 17.9584 1.9999 18.78C2.00011 21.0474 3.96116 22.9798 6.50014 22.9799C9.03878 22.98 11.0001 21.0475 11 18.78C11 17.9585 10.7481 17.1915 10.3074 16.5407L10.3021 16.5461C9.32345 15.0449 8.7518 13.7351 8.77159 12.3696C8.79116 11.0049 9.39986 9.77678 10.3103 8.44133L10.3075 8.43927C10.7482 7.78846 11.0001 7.02159 11.0001 6.20015C11 3.9326 9.03883 1.99998 6.5 2.00006ZM11.9575 15.4232C11.0653 14.0484 10.7604 13.1581 10.7713 12.3987C10.7824 11.6344 11.1153 10.8104 11.9658 9.56363L11.9636 9.56074C12.6174 8.59494 13.0001 7.44039 13.0001 6.20003C13 2.72376 10.0363 5.31781e-05 6.50023 1.43651e-09C2.9638 -7.22278e-05 6.37614e-05 2.72368 0.000204015 6.19996C0.000121073 7.44032 0.382727 8.59497 1.03667 9.56078L1.03392 9.56357C1.88466 10.8103 2.21741 11.6344 2.22862 12.3984C2.23971 13.1582 1.93428 14.0483 1.04239 15.4232L1.03656 15.4192C0.382713 16.385 8.29421e-05 17.5396 0 18.7799C0.000140253 22.2562 2.96383 24.9799 6.49992 24.98C10.0362 24.9798 13.0001 22.2563 12.9999 18.78C13 17.5396 12.6174 16.385 11.9635 15.4192L11.9575 15.4232Z" transform="translate(33.6619 17.0002) rotate(41.8367)" fill="white"/>
<line x1="1" y1="-1" x2="32.2415" y2="-1" transform="translate(17 20) rotate(43.7811)" stroke="white" stroke-width="2" stroke-linecap="round"/>
</svg>
