<svg width="79" height="25" viewBox="0 0 79 25" fill="none" xmlns="http://www.w3.org/2000/svg">
<g opacity="0.2">
<path d="M7.27099 4.92263C7.84267 4.6967 8.81829 3.93845 8.81829 2.47501C8.81829 1.44975 8.40066 0.850678 7.70916 0.439888C6.99712 0.0290976 6.17041 0 5.0493 0H0V9.18629H2.19773V5.84691H4.55121C5.34198 5.84691 5.83151 5.91709 6.15158 6.23887C6.55039 6.68047 6.49733 7.47467 6.49733 8.02752L6.5076 9.18629H8.72244V7.38053C8.72244 6.56066 8.66938 6.15329 8.35787 5.69629C8.16274 5.42757 7.75195 5.10578 7.27099 4.92263ZM5.94961 3.76558C5.64494 3.94872 5.28892 3.95385 4.86273 3.95385H2.19431L2.19602 1.91531H4.90038C5.28036 1.91531 5.68088 1.93414 5.94105 2.08134C6.22518 2.21484 6.40148 2.49897 6.40148 2.89265C6.40148 3.29317 6.23203 3.61667 5.94961 3.76558Z" transform="translate(34.1709 0.00146484)" fill="white"/>
<path d="M2.24051 0H0V9.18629H2.24051V0Z" transform="translate(44.2695 0.00341797)" fill="white"/>
<path d="M22.6705 0V6.39806L18.809 0H15.4662V8.68821L11.7486 0H8.46057L5.3591 7.22306H4.37491C3.80152 7.22306 3.18191 7.11352 2.84472 6.74894C2.43222 6.2868 2.24051 5.57648 2.24051 4.594C2.24051 3.62865 2.49555 2.89949 2.87039 2.51267C3.30515 2.08818 3.75531 1.96837 4.56148 1.96837H6.64111V0H4.51698C3.0039 0 1.88963 0.33719 1.18273 1.06977C0.241336 2.05395 0 3.30001 0 4.66247C0 6.3313 0.403943 7.38909 1.1776 8.16959C1.94098 8.94838 3.29146 9.18458 4.36122 9.18629H6.93208L7.75709 7.13748H12.3169L13.1727 9.18629H17.6417V2.29187L21.8078 9.18629H24.9161V0H22.6705ZM8.54272 5.22046L10.0507 1.55929L11.5723 5.22046H8.54272Z" transform="translate(47.5764 0.00341797)" fill="white"/>
<path d="M0.807887 3.90811e-05C0.290977 -0.00167254 0.237918 0.0530994 0.174588 0.113006C0.154048 0.142104 0 0.472446 0 1.10917C0 1.73905 0.100988 2.04201 0.174588 2.17894C0.251611 2.19948 0.393674 2.22344 0.605915 2.22344L1.55758 3.90811e-05H0.807887Z" transform="translate(51.335 3.48682)" fill="white"/>
<path d="M7.32576 1.89991V0H0V9.188H7.32576V7.28297L2.18404 7.27099V5.44639H7.1991V3.57045H2.18404V1.89991H7.32576Z" transform="translate(53.6184 15.811)" fill="white"/>
<path d="M21.3405 1.78877e-05H14.3263L11.5329 3.00905L8.82856 1.78877e-05H0V9.18631H8.69677L11.5073 6.14475L14.2116 9.18631H18.4787V6.10538H21.2173C23.136 6.10538 25.0394 5.5782 25.0394 3.02617C25.0394 0.482696 23.083 -0.00340536 21.3405 1.78877e-05ZM7.58593 7.27442H2.19088V5.44641H7.00911V3.57047H2.19088V1.89992H7.69376L10.0952 4.57519L7.58593 7.27442ZM16.2912 8.35104L12.9193 4.606L16.2912 0.9842V8.35104ZM21.3132 4.23629H18.4787V1.8965H21.3405C22.1347 1.8965 22.6825 2.22 22.6825 3.02446C22.6825 3.82037 22.1587 4.23971 21.3132 4.23629Z" transform="translate(17.4878 15.814)" fill="white"/>
<path d="M7.27954 4.9175C7.85465 4.68814 8.83541 3.94187 8.83883 2.47159C8.83883 1.42407 8.40237 0.848967 7.71258 0.431331C6.98685 0.0462153 6.17897 0 5.06812 0H0V9.18629H2.20457V5.83151H4.5495C5.35054 5.83151 5.83836 5.91024 6.16014 6.23887C6.56751 6.66678 6.51444 7.48494 6.51444 8.03779V9.18629H8.71731V7.36513C8.71046 6.55553 8.66596 6.13789 8.35273 5.68944C8.16787 5.42414 7.76564 5.09551 7.27954 4.9175ZM5.95646 3.77585C5.66206 3.95043 5.29748 3.96584 4.86957 3.96584H2.20115V1.90162H4.90552C5.29234 1.90162 5.68602 1.91017 5.95303 2.06764C6.23716 2.21655 6.40661 2.5024 6.40661 2.89436C6.40661 3.28632 6.23716 3.6064 5.95646 3.77585Z" transform="translate(43.5645 15.811)" fill="white"/>
<path d="M7.32918 4.33897C6.82425 3.83917 6.00609 3.63378 4.8148 3.60639L3.63549 3.57216C3.26065 3.57216 3.01417 3.5482 2.77968 3.46775C2.50411 3.36335 2.30042 3.13056 2.30042 2.7831C2.30042 2.49213 2.38943 2.27133 2.63248 2.1207C2.85156 1.97179 3.11002 1.95468 3.51225 1.95468H7.538V0H3.13912C0.835273 0 0 1.40011 0 2.73518C0 5.6398 2.57257 5.50972 4.6231 5.57647C5.00822 5.57647 5.23758 5.6398 5.40531 5.78016C5.55936 5.91024 5.67232 6.11906 5.67232 6.38778C5.67232 6.63768 5.56621 6.8465 5.41559 6.98686C5.23073 7.16144 4.93461 7.2145 4.5204 7.2145H0.261878V9.18458H4.53752C6.75065 9.18458 7.98815 8.26202 7.98815 6.28509C7.98815 5.34198 7.75708 4.78057 7.32918 4.33897Z" transform="translate(62.0054 15.8091)" fill="white"/>
<path d="M20.0226 0L17.385 6.23203L14.5112 0H10.927V8.69848L7.19054 0H3.9316L0 9.18629H2.38429L3.23668 7.13748H7.80672L8.65055 9.18629H13.1179V1.98548L16.3067 9.18458L18.2391 9.18629L21.4227 1.99233L21.4313 9.18629H23.682V0H20.0226ZM4.0189 5.22388L5.51143 1.56271L7.01253 5.22388H4.0189Z" fill="white"/>
<path d="M7.3326 1.9136V0H0V9.188H7.3326V7.2881H2.1943V5.45153H7.21108V3.57045H2.1943V1.9136H7.3326Z" transform="translate(25.3149)" fill="white"/>
<path d="M7.32918 4.33897C6.82768 3.83917 6.00781 3.63378 4.81652 3.60639L3.63549 3.57216C3.26407 3.57216 3.01588 3.5482 2.77968 3.46775C2.50753 3.36335 2.30214 3.13056 2.30214 2.7831C2.30214 2.49213 2.39114 2.27133 2.63248 2.1207C2.85328 1.97179 3.11345 1.95468 3.51397 1.95468H7.54142V0H3.13913C0.838702 0 0 1.40011 0 2.73518C0 5.6398 2.57429 5.50972 4.62653 5.57647C5.00993 5.57647 5.23757 5.6398 5.40874 5.78016C5.55936 5.91024 5.67404 6.11906 5.67404 6.38778C5.67404 6.63768 5.56621 6.8465 5.41901 6.98686C5.23244 7.16144 4.93633 7.2145 4.52212 7.2145H0.265306V9.18458H4.54094C6.75407 9.18458 7.98815 8.26202 7.98815 6.28509C7.98815 5.34198 7.76051 4.78057 7.32918 4.33897Z" transform="translate(70.9741 15.8091)" fill="white"/>
</g>
</svg>
