<svg width="147" height="25" viewBox="0 0 147 25" fill="none" xmlns="http://www.w3.org/2000/svg">
<g opacity="0.2">
<path d="M12.264 24.528C19.0372 24.528 24.528 19.0372 24.528 12.264C24.528 5.49079 19.0372 0 12.264 0C5.49079 0 0 5.49079 0 12.264C0 19.0372 5.49079 24.528 12.264 24.528Z" transform="translate(65.3296 0.23584)" fill="white"/>
<path d="M0 12.264C0 5.42447 5.42447 0 12.264 0C19.1036 0 24.528 5.42447 24.528 12.264C24.528 19.1036 19.1036 24.528 12.264 24.528" transform="translate(65.3296 0.23584)" fill="white"/>
<path d="M0 3.5377C4.71693 -1.17923 12.4999 -1.17923 17.2168 3.5377C21.9337 8.25463 21.9337 16.0376 17.2168 20.7545" transform="translate(69.103 0.23584)" fill="white"/>
<path d="M6.6037 0H0V23.113H6.6037C10.1414 23.113 12.7357 22.1696 14.8583 20.5186C17.4526 18.396 19.1036 15.0942 19.1036 11.5565C19.1036 4.71693 14.1508 0 6.6037 0ZM12.0282 17.4526C10.6131 18.6319 8.72632 19.3394 5.89616 19.3394H4.48108V4.00939H5.66032C8.49047 4.00939 10.3772 4.48108 11.7923 5.89616C13.4432 7.31124 14.3866 9.43386 14.3866 11.5565C14.6225 13.6791 13.6791 16.0376 12.0282 17.4526Z" transform="translate(0 0.943848)" fill="white"/>
<path d="M4.48108 0H0V23.113H4.48108V0Z" transform="translate(21.2261 0.943848)" fill="white"/>
<path d="M9.43386 9.19801C6.6037 8.25463 5.89616 7.54708 5.89616 6.36785C5.89616 4.95277 7.31124 3.77354 9.19801 3.77354C10.6131 3.77354 11.7923 4.24524 12.9716 5.66031L15.33 2.59431C13.4433 0.943382 11.0848 0 8.49047 0C4.48108 0 1.17923 2.83016 1.17923 6.6037C1.17923 9.90555 2.59431 11.3206 6.83955 12.9716C8.72632 13.6791 9.43386 13.9149 9.90555 14.3866C10.8489 14.8583 11.3206 15.8017 11.3206 16.7451C11.3206 18.6319 9.90555 20.0469 7.78293 20.0469C5.66032 20.0469 3.77354 18.8677 2.83016 16.9809L0 19.8111C2.12262 22.8771 4.71693 24.2922 8.01878 24.2922C12.7357 24.2922 16.0376 21.2262 16.0376 16.7451C16.0376 12.7357 14.6225 11.0848 9.43386 9.19801Z" transform="translate(27.594 0.708008)" fill="white"/>
<path d="M0 12.4999C0 19.3394 5.42447 24.528 12.264 24.528C14.1508 24.528 15.8017 24.0563 17.9243 23.113V17.6885C16.0376 19.5753 14.3866 20.2828 12.4999 20.2828C8.01878 20.2828 4.71693 16.9809 4.71693 12.264C4.71693 7.78293 8.01878 4.24524 12.264 4.24524C14.3866 4.24524 16.0376 4.95277 17.9243 6.83955V1.41508C16.0376 0.471694 14.3866 0 12.264 0C5.66031 0.471693 0 5.89616 0 12.4999Z" transform="translate(45.0469)" fill="white"/>
<path d="M11.0848 15.5659L4.95277 0H0L9.6697 23.8205H12.264L22.4054 0H17.4526L11.0848 15.5659Z" transform="translate(88.9141 0.943848)" fill="white"/>
<path d="M0 23.113H12.9716V19.3394H4.71693V12.9716H12.7357V8.96217H4.71693V4.00939H12.9716V0H0V23.113Z" transform="translate(113.206 0.943848)" fill="white"/>
<path d="M9.66971 13.4432C13.2074 12.7357 15.0942 10.3772 15.0942 6.83955C15.0942 2.59431 12.0282 0 6.83955 0H0V23.113H4.48109V13.9149H5.18862L11.5565 23.113H16.9809L9.66971 13.4432ZM5.89616 10.6131H4.48109V3.5377H5.89616C8.72632 3.5377 10.3772 4.71693 10.3772 7.07539C10.3772 9.43386 8.72632 10.6131 5.89616 10.6131Z" transform="translate(129.244 0.943848)" fill="white"/>
<path d="M6.6037 0H0V23.113H6.6037C10.1414 23.113 12.7357 22.1696 14.8583 20.5186C17.4526 18.396 19.1036 15.0942 19.1036 11.5565C19.1036 4.71693 14.1508 0 6.6037 0ZM12.0282 17.4526C10.6131 18.6319 8.72632 19.3394 5.89616 19.3394H4.48108V4.00939H5.66032C8.49047 4.00939 10.3772 4.48108 11.7923 5.89616C13.4432 7.31124 14.3866 9.43386 14.3866 11.5565C14.6225 13.6791 13.6791 16.0376 12.0282 17.4526Z" transform="translate(0 0.943848)" fill="white"/>
<path d="M4.48108 0H0V23.113H4.48108V0Z" transform="translate(21.2261 0.943848)" fill="white"/>
<path d="M9.43386 9.19801C6.6037 8.25463 5.89616 7.54708 5.89616 6.36785C5.89616 4.95277 7.31124 3.77354 9.19801 3.77354C10.6131 3.77354 11.7923 4.24524 12.9716 5.66031L15.33 2.59431C13.4433 0.943382 11.0848 0 8.49047 0C4.48108 0 1.17923 2.83016 1.17923 6.6037C1.17923 9.90555 2.59431 11.3206 6.83955 12.9716C8.72632 13.6791 9.43386 13.9149 9.90555 14.3866C10.8489 14.8583 11.3206 15.8017 11.3206 16.7451C11.3206 18.6319 9.90555 20.0469 7.78293 20.0469C5.66032 20.0469 3.77354 18.8677 2.83016 16.9809L0 19.8111C2.12262 22.8771 4.71693 24.2922 8.01878 24.2922C12.7357 24.2922 16.0376 21.2262 16.0376 16.7451C16.0376 12.7357 14.6225 11.0848 9.43386 9.19801Z" transform="translate(27.594 0.708008)" fill="white"/>
<path d="M12.2714 21.2262C14.1582 21.2262 15.8091 20.7545 17.9317 19.8111V14.3866C16.045 16.2734 14.394 16.9809 12.5073 16.9809C8.02619 16.9809 4.72434 13.6791 4.72434 8.96217C4.72434 6.6037 5.66772 4.71693 7.0828 3.06601L4.01679 0C1.65833 2.12262 0.00740687 5.42447 0.00740687 8.96217C-0.22844 16.0376 5.19603 21.2262 12.2714 21.2262Z" transform="translate(45.2751 3.30127)" fill="white"/>
<path d="M9.66971 13.4432C13.2074 12.7357 15.0942 10.3772 15.0942 6.83955C15.0942 2.59431 12.0282 0 6.83955 0H0V23.113H4.48109V13.9149H5.18862L11.5565 23.113H16.9809L9.66971 13.4432ZM5.89616 10.6131H4.48109V3.5377H5.89616C8.72632 3.5377 10.3772 4.71693 10.3772 7.07539C10.3772 9.43386 8.72632 10.6131 5.89616 10.6131Z" transform="translate(129.244 0.943848)" fill="white"/>
<path d="M8.96216 8.96216H4.71693V4.71693L0 0V12.7357H12.7357L8.96216 8.96216Z" transform="translate(113.206 11.3218)" fill="white"/>
<path d="M16.2734 2.35846L11.0848 15.5659L4.95277 0H0L9.6697 23.8205H12.264L19.8111 5.89616L16.2734 2.35846Z" transform="translate(88.9141 0.943848)" fill="white"/>
</g>
</svg>
