<svg width="49" height="30" viewBox="0 0 49 30" fill="none" xmlns="http://www.w3.org/2000/svg">
<path d="M15 30C23.2843 30 30 23.2843 30 15C30 6.71573 23.2843 0 15 0C6.71573 0 0 6.71573 0 15C0 23.2843 6.71573 30 15 30Z" fill="#7C6B6B"/>
<path opacity="0.2" d="M15 30C23.2843 30 30 23.2843 30 15C30 6.71573 23.2843 0 15 0C6.71573 0 0 6.71573 0 15C0 23.2843 6.71573 30 15 30Z" transform="translate(18.6362)" fill="white"/>
<path d="M0 11.7544C0 16.5172 2.22022 20.7611 5.68172 23.5087C9.14311 20.7609 11.3634 16.5172 11.3634 11.7544C11.3634 6.99155 9.14323 2.74765 5.68172 0C2.22033 2.74788 0 6.99166 0 11.7544Z" transform="translate(18.6365 3.24561)" fill="#7C6B6B"/>
</svg>
