<svg width="90" height="25" viewBox="0 0 90 25" fill="none" xmlns="http://www.w3.org/2000/svg">
<g opacity="0.2">
<path d="M8.49236 0.0108866C6.28647 0.0108866 4.52177 0.599122 3.05118 0.89324L2.61 4.27559C3.3453 3.98148 5.40412 3.39324 7.16883 3.24618C8.93353 3.24618 9.96294 3.5403 9.66883 5.15795C4.37471 5.15795 0.845297 6.18736 0.110003 9.71677C-0.919409 15.5991 5.55118 15.7462 8.05118 13.0991L7.75706 14.7168H12.4629L14.5218 5.15795C15.2571 1.18736 11.7277 -0.136172 8.49236 0.0108866ZM8.78648 9.86383C8.49236 11.0403 7.46294 11.4815 6.28647 11.6285C5.25706 11.6285 4.37471 11.0403 4.96294 9.86383C5.55118 8.98148 6.87471 8.98147 7.90412 8.98147C8.19824 8.98147 8.63941 8.98147 9.08059 8.98147C8.93353 8.83442 8.78648 9.42265 8.78648 9.86383Z" transform="translate(61.6548 4.40088)" fill="white"/>
<path d="M2.61 4.11765C3.3453 3.82353 5.40412 3.23529 7.16883 3.08824C8.93353 3.08824 9.96294 3.38235 9.66883 5C4.37471 5 0.845297 6.02941 0.110003 9.55882C-0.919409 15.4412 5.55118 15.5882 8.05118 12.9412L7.75706 14.5588H12.4629L14.5218 5C15.4041 1.02941 11.7277 0 8.49236 0L2.61 4.11765ZM8.78648 9.70588C8.49236 10.8824 7.46294 11.3235 6.28647 11.4706C5.25706 11.4706 4.37471 10.8824 4.96294 9.70588C5.55118 8.82353 6.87471 8.82353 7.90412 8.82353C8.19824 8.82353 8.63941 8.82353 9.08059 8.82353C8.93353 8.67647 8.78648 9.26471 8.78648 9.70588Z" transform="translate(61.6548 4.55859)" fill="white"/>
<path d="M3.82353 0L0 19.1176H4.70588L8.67647 0H3.82353Z" transform="translate(76.3235)" fill="white"/>
<path d="M7.20588 0L0 19.1176H4.70588L8.67647 0H3.82353H7.20588Z" transform="translate(76.3235)" fill="white"/>
<path d="M12.5 0H3.82353L0 19.1176H5.14706L6.47059 13.2353H10.1471C13.6765 13.2353 16.6176 11.1765 17.3529 7.5C18.0882 3.23529 15 0 12.5 0ZM12.3529 6.61765C12.0588 7.94118 10.7353 8.82353 9.41176 8.82353H7.05883L8.08823 4.41176H10.5882C11.9118 4.41176 12.6471 5.29412 12.3529 6.61765Z" transform="translate(45.7354)" fill="white"/>
<path d="M12.6471 0H6.7647L0 19.1176H5.14706L6.47059 13.2353H10.1471C13.6765 13.2353 16.6176 11.1765 17.3529 7.5C18.2353 3.23529 15.1471 0 12.6471 0ZM12.5 6.61765C12.2059 7.94118 10.8824 8.82353 9.55882 8.82353H7.20588L8.23529 4.41176H10.7353C12.0588 4.41176 12.7941 5.29412 12.5 6.61765Z" transform="translate(45.5881)" fill="white"/>
<path d="M8.2005 0.0108866C5.99462 0.0108866 4.22991 0.599122 2.90638 0.89324L2.46521 4.27559C3.05344 3.98148 5.25932 3.39324 7.02403 3.24618C8.78874 3.24618 9.81815 3.5403 9.52403 5.15795C4.37697 5.15795 0.847559 6.18736 0.112265 9.71677C-0.917147 15.5991 5.40638 15.7462 7.90638 13.0991L7.61227 14.7168H12.3181L14.377 5.15795C15.1123 1.18736 11.4358 -0.136172 8.2005 0.0108866ZM8.64168 9.86383C8.34756 11.0403 7.31815 11.4815 6.14168 11.6285C5.11227 11.6285 4.22991 11.0403 4.96521 9.86383C5.55344 8.98148 6.87697 8.98147 7.75933 8.98147C8.2005 8.98147 8.49462 8.98147 8.93579 8.98147C8.78874 8.83442 8.64168 9.42265 8.64168 9.86383Z" transform="translate(16.0642 4.40088)" fill="white"/>
<path d="M2.46521 4.11765C3.05344 3.82353 5.25932 3.23529 7.02403 3.08824C8.78874 3.08824 9.81815 3.38235 9.52403 5C4.37697 5 0.847559 6.02941 0.112265 9.55882C-0.917147 15.4412 5.40638 15.5882 7.90638 12.9412L7.46521 14.5588H12.1711L14.2299 5C15.1123 1.02941 11.4358 0 8.2005 0L2.46521 4.11765ZM8.49462 9.70588C8.2005 10.8824 7.17109 11.3235 5.99462 11.4706C4.96521 11.4706 4.08285 10.8824 4.81815 9.70588C5.40638 8.82353 6.72991 8.82353 7.61227 8.82353C8.05344 8.82353 8.34756 8.82353 8.78873 8.82353C8.64168 8.67647 8.49462 9.26471 8.49462 9.70588Z" transform="translate(16.2112 4.55859)" fill="white"/>
<path d="M1.47059 0H6.17647L6.91177 8.2353L11.6176 0H16.4706L5.29412 20.5882H0L3.38235 14.4118L1.47059 0Z" transform="translate(30.8823 4.41162)" fill="white"/>
<path d="M6.17647 0.294119L6.91177 8.38235L11.6176 0H16.4706L5.29412 20.5882H0L3.38235 14.5588" transform="translate(30.8823 4.41162)" fill="white"/>
<path d="M12.6471 0H3.82353L0 19.1176H5.14706L6.47059 13.2353H10.1471C13.6765 13.2353 16.6176 11.1765 17.3529 7.5C18.2353 3.23529 15.1471 0 12.6471 0ZM12.5 6.61765C12.2059 7.94118 10.8824 8.82353 9.55882 8.82353H7.20588L8.23529 4.41176H10.7353C12.0588 4.41176 12.7941 5.29412 12.5 6.61765Z" fill="white"/>
<path d="M12.6471 0H8.67647L0 19.1176H5.14706L6.47059 13.2353H10.1471C13.6765 13.2353 16.6176 11.1765 17.3529 7.5C18.2353 3.23529 15.1471 0 12.6471 0ZM12.5 6.61765C12.2059 7.94118 10.8824 8.82353 9.55882 8.82353H7.20588L8.23529 4.41176H10.7353C12.0588 4.41176 12.7941 5.29412 12.5 6.61765Z" fill="white"/>
<path d="M7.31815 0C3.34756 0.294118 0.7005 1.47059 0.112265 4.41176C-0.917147 10.2941 5.40638 10.4412 7.90638 7.79412L7.61227 9.55882H12.3181L13.0534 6.02942L7.31815 0ZM8.64168 4.70588C8.34756 5.88235 7.31815 6.32353 6.14168 6.47059C5.11227 6.47059 4.22991 5.88235 4.96521 4.70588C5.55344 3.82353 6.87697 3.82353 7.75933 3.82353C8.2005 3.82353 8.49462 3.82353 8.93579 3.82353C8.78874 3.67647 8.64168 4.26471 8.64168 4.70588Z" transform="translate(16.0642 9.55859)" fill="white"/>
<path d="M0.294116 8.08823L0 8.52941L3.08823 11.4706L9.55882 0H4.70588L0.294116 8.08823Z" transform="translate(37.7942 4.41162)" fill="white"/>
<path d="M4.70588 5.88235L6.02941 0L0 5.88235H4.70588Z" transform="translate(0.441162 13.2354)" fill="white"/>
<path d="M4.70588 6.17647L6.02942 0V0.147059L0 6.17647H4.70588Z" transform="translate(46.0293 12.9414)" fill="white"/>
<path d="M7.31589 0C3.3453 0.294118 0.698238 1.47059 0.110003 4.41176C-0.919409 10.2941 5.55118 10.4412 8.05118 7.79412L7.61001 9.55882H12.3159L13.0512 6.02942L7.31589 0ZM8.63942 4.70588C8.3453 5.88235 7.31589 6.32353 6.13942 6.47059C5.11001 6.47059 4.22765 5.88235 4.81589 4.70588C5.40412 3.82353 6.72765 3.82353 7.75706 3.82353C8.05118 3.82353 8.49236 3.82353 8.93353 3.82353C8.78647 3.67647 8.63942 4.26471 8.63942 4.70588Z" transform="translate(61.8018 9.55908)" fill="white"/>
<path d="M3.38235 0L0 8.67647H4.70588L6.02941 2.79412L3.38235 0Z" transform="translate(76.3235 10.4414)" fill="white"/>
<path d="M0.735294 2.35294V0.294119H0V0H1.91176V0.294119H1.17647V2.35294H0.735294Z" transform="translate(85.2942 0.73584)" fill="white"/>
<path d="M0 2.5V0.147057H0.441175L1.02941 1.7647C1.02941 1.91176 1.17647 2.05882 1.17647 2.05882C1.17647 1.91176 1.17647 1.91176 1.32353 1.61764L1.91176 0H2.35294V2.35294H2.05883V0.294116L1.32353 2.35294H0.882351L0.147057 0.294116V2.35294H0V2.5Z" transform="translate(87.5 0.588867)" fill="white"/>
</g>
</svg>
