<svg width="83" height="25" viewBox="0 0 83 25" fill="none" xmlns="http://www.w3.org/2000/svg">
<g opacity="0.2">
<path d="M0 23.5594L4.18833 0H10.7326L6.67516 23.5594H0Z" transform="translate(30.2346 0.786133)" fill="white"/>
<path d="M0 23.5594L5.36631 0H10.7326L6.67516 23.5594H0Z" transform="translate(30.2346 0.786133)" fill="white"/>
<path d="M20.0255 1.04708C18.7166 0.523541 16.6225 0 14.0048 0C7.46047 0 2.74859 3.27214 2.74859 7.98401C2.74859 11.5179 6.02073 13.3503 8.63844 14.5283C11.2562 15.7063 12.0415 16.4916 12.0415 17.5387C12.0415 19.1093 9.9473 19.8946 8.1149 19.8946C5.49719 19.8946 4.05745 19.5019 1.8324 18.5857L0.9162 18.1931L0 23.5594C1.57063 24.2138 4.45011 24.8682 7.46047 24.8682C14.3974 24.8682 18.9784 21.5961 18.9784 16.6225C18.9784 13.8739 17.2769 11.7797 13.3503 10.0782C10.9944 8.90021 9.55464 8.24579 9.55464 7.06782C9.55464 6.02073 10.7326 4.97365 13.3503 4.97365C15.5754 4.97365 17.146 5.36631 18.324 5.88985L18.9784 6.15162L20.0255 1.04708Z" transform="translate(40.5745)" fill="white"/>
<path d="M20.0255 1.04708C18.7166 0.523541 16.6225 0 14.0048 0C7.46047 0 3.92657 3.27214 3.92657 7.98401C3.92657 11.5179 6.02073 13.3503 8.63844 14.5283C11.2562 15.7063 12.0415 16.4916 12.0415 17.5387C12.0415 19.1093 9.9473 19.8946 8.1149 19.8946C5.49719 19.8946 4.05745 19.5019 1.8324 18.5857L0.9162 18.1931L0 23.5594C1.57063 24.2138 4.45011 24.8682 7.46047 24.8682C14.3974 24.8682 18.9784 21.5961 18.9784 16.6225C18.9784 13.8739 17.2769 11.7797 13.3503 10.0782C10.9944 8.90021 9.55464 8.24579 9.55464 7.06782C9.55464 6.02073 10.7326 4.97365 13.3503 4.97365C15.5754 4.97365 17.146 5.36631 18.324 5.88985L18.9784 6.15162L20.0255 1.04708Z" transform="translate(40.5745)" fill="white"/>
<path d="M13.2194 0C11.6488 0 10.4708 0.130887 9.81641 1.70151L0 23.5594H7.06782L8.37667 19.6328H16.7533L17.5387 23.5594H23.8212L18.324 0H13.2194ZM10.2091 15.7063C10.6017 14.5283 12.8268 8.76933 12.8268 8.76933C12.8268 8.76933 13.3503 7.32959 13.743 6.41339L14.1356 8.63844C14.1356 8.63844 15.4445 14.5283 15.7063 15.8372H10.2091V15.7063Z" transform="translate(58.6367 0.786133)" fill="white"/>
<path d="M14.7901 0C13.2194 0 12.0415 0.130887 11.387 1.70151L0 23.5594H7.06782L8.37667 19.6328H16.7533L17.5387 23.5594H23.8212L18.324 0H14.7901ZM10.2091 15.7063C10.7326 14.3974 12.8268 8.76933 12.8268 8.76933C12.8268 8.76933 13.3503 7.32959 13.743 6.41339L14.1356 8.63844C14.1356 8.63844 15.4445 14.5283 15.7063 15.8372H10.2091V15.7063Z" transform="translate(58.6367 0.786133)" fill="white"/>
<path d="M9.81641 16.3607L9.16199 12.9577C7.98402 9.0311 4.18834 4.71188 0 2.61771L5.88985 23.5594H12.9577L23.5594 0H16.4916L9.81641 16.3607Z" transform="translate(8.37671 0.914551)" fill="white"/>
<path d="M9.81641 16.3607L9.16199 12.9577C7.98402 9.0311 4.18834 4.71188 0 2.61771L5.88985 23.5594H12.9577L23.5594 0H17.8004L9.81641 16.3607Z" transform="translate(8.37671 0.914551)" fill="white"/>
<path d="M0 0L1.17797 0.261772C9.55464 2.22505 15.3136 7.1987 17.5387 13.0886L15.1827 1.96328C14.7901 0.392656 13.6121 0 12.1724 0H0Z" transform="translate(0 0.786133)" fill="white"/>
<path d="M0 0C8.37667 1.96328 15.3136 7.06782 17.5387 12.9577L15.3136 3.6648C14.9209 2.09417 13.6121 1.17797 12.1724 1.17797L0 0Z" transform="translate(0 0.786133)" fill="white"/>
<path d="M0 0C8.37667 1.96328 15.3136 7.06782 17.5387 12.9577L15.968 7.85313C15.5754 6.2825 15.0518 4.71188 13.2194 4.05745L0 0Z" transform="translate(0 0.786133)" fill="white"/>
<path d="M16.2298 13.0886L11.7797 8.63844L9.68553 13.6121L9.16199 10.34C7.98402 6.41339 4.18834 2.09417 0 0L5.88985 20.9417H12.9577L16.2298 13.0886Z" transform="translate(8.50757 3.40137)" fill="white"/>
<path d="M6.67516 5.75896L1.04708 0L0 5.75896H6.67516Z" transform="translate(30.2349 18.5854)" fill="white"/>
<path d="M11.387 0C11.9106 0.523542 12.1724 0.916202 12.0415 1.43974C12.0415 3.01037 9.9473 3.79568 8.1149 3.79568C5.49719 3.79568 4.05745 3.40303 1.8324 2.48683L0.9162 2.09417L0 7.46047C1.57063 8.1149 4.45011 8.76933 7.46047 8.76933C11.6488 8.76933 15.0518 7.59136 17.0151 5.49719L11.387 0Z" transform="translate(40.5747 16.2305)" fill="white"/>
<path d="M0 17.146H6.15162L7.46047 13.2194H15.8371L16.6225 17.146H22.905L20.6799 7.59136L12.8268 0L13.2194 2.09417C13.2194 2.09417 14.5283 7.98401 14.7901 9.29287H9.29287C9.81641 7.98401 11.9106 2.35594 11.9106 2.35594C11.9106 2.35594 12.4341 0.916199 12.8268 0" transform="translate(59.553 7.19873)" fill="white"/>
</g>
</svg>
