<svg width="60" height="60" viewBox="0 0 60 60" fill="none" xmlns="http://www.w3.org/2000/svg">
<circle opacity="0.2" cx="30" cy="30" r="30" fill="#EB5B25"/>
<ellipse cx="19.7802" cy="19.7802" rx="19.7802" ry="19.7802" transform="translate(10 11)" fill="#EB5B25"/>
<path d="M10.4022 9.14823H9.72464V11.3043C9.72464 12.2393 9.45946 13 8.47054 13C7.48162 13 7.17134 12.2393 7.17134 11.3043V9.14823H3.88192V11.3043C3.88192 12.2393 3.60077 13 2.61184 13C1.62292 13 1.35507 12.2393 1.35507 11.3043V9.14823H0.597826C0.267667 9.14823 0 8.89516 0 8.58301V0.565217C0 0.253067 0.267667 0 0.597826 0H10.4022C10.7323 0 11 0.253067 11 0.565217" transform="translate(19 28)" stroke="white" stroke-width="2"/>
<line x1="1" y1="-1" x2="6" y2="-1" transform="translate(15 27.5) rotate(90)" stroke="white" stroke-width="2" stroke-linecap="round"/>
<path d="M11.1953 1.05025C11.4358 0.810018 11.4358 0.420492 11.1953 0.180223C10.9547 -0.0600469 10.5647 -0.0600469 10.3241 0.180223L9.23618 1.26677C8.26112 0.475207 7.01883 0 5.6673 0C4.33672 0 3.11196 0.460564 2.14392 1.23014L1.09268 0.180223C0.852148 -0.0600469 0.46209 -0.0600469 0.221517 0.180223C-0.0190554 0.420492 -0.0190554 0.810018 0.221517 1.05029L1.26837 2.09582C0.475806 3.06961 0 4.31037 0 5.66016C0 5.99993 0.275809 6.27539 0.616011 6.27539H10.7186C11.0588 6.27539 11.3346 5.99993 11.3346 5.66016C11.3346 4.33125 10.8735 3.10804 10.1029 2.14122L11.1953 1.05025ZM1.27465 5.04492C1.57539 2.8925 3.43065 1.23047 5.6673 1.23047C7.90395 1.23047 9.75921 2.8925 10.0599 5.04492H1.27465Z" transform="translate(18.3115 20)" fill="white" stroke="white" stroke-width="0.7"/>
<path d="M13.8757 10.9407C13.1207 12.1026 12.1142 13.4375 11.0225 13.4469L11.0013 13.447C10.5605 13.447 10.2697 13.3119 9.90157 13.1409C9.43202 12.9228 8.84765 12.6514 7.86651 12.6514L7.83566 12.6514C6.84812 12.6564 6.25162 12.9262 5.77241 13.1429C5.39249 13.3148 5.09241 13.4504 4.64466 13.4504L4.62147 13.4504C3.49778 13.4406 2.53783 12.1835 1.82731 11.0899C0.375888 8.8511 -0.268523 6.19419 0.103396 3.98351C0.227213 3.25561 0.446926 2.64031 0.755803 2.15563C1.60766 0.825995 2.9462 0 4.24901 0C4.92515 0 5.46746 0.196666 6.04164 0.404868C6.59222 0.604569 7.16152 0.811017 7.82106 0.811017C8.44355 0.811017 8.95101 0.616173 9.44175 0.427739C9.9894 0.217445 10.5558 0 11.3812 0C12.3635 0 13.3836 0.478812 14.1942 1.30224C13.461 1.84333 12.9212 2.56765 12.6178 3.42481C11.8267 5.6523 12.8168 8.12198 14.8392 9.18081C14.5386 9.8409 14.325 10.2437 13.8757 10.9407Z" transform="translate(27.9985 27.5376)" stroke="white" stroke-width="2"/>
<path d="M0.905508 1.12765C1.41198 0.604954 2.23182 0.173166 3 0C2.96346 0.884438 2.39623 1.60341 2.12347 1.89973C1.5932 2.47647 0.77784 2.89149 0 3C0.0154686 2.12048 0.678169 1.3621 0.905508 1.12765Z" transform="translate(37 22)" stroke="white" stroke-width="2"/>
</svg>
