<svg width="60" height="60" viewBox="0 0 60 60" fill="none" xmlns="http://www.w3.org/2000/svg">
<circle opacity="0.2" cx="30" cy="30" r="30" fill="#EB5B25"/>
<ellipse cx="19.7802" cy="19.7802" rx="19.7802" ry="19.7802" transform="translate(10.5493 10.5496)" fill="#EB5B25"/>
<path d="M2.09025 9.07056C3.6242 8.6871 5.27207 7.57069 4.59019 5.07057C3.39014 0.670575 8.09019 -1.42934 9.59019 1.07065C11.0902 3.57063 11.2902 5.37069 14.0902 4.57069C17.5902 3.57069 19.5902 5.07069 20.5902 7.57069C21.3902 9.57069 20.2569 10.7374 19.5902 11.0707C18.7569 11.5707 17.5901 12.5706 17.0901 13.5706C16.8665 14.0178 16.5902 15.0707 17.5902 19.0707C18.3902 22.2707 14.5901 23.5706 13.0901 23.5706C12.0901 23.5706 10.8902 22.7707 10.0902 21.5707C9.09019 20.0707 10.0902 19.0707 7.59019 16.0707C5.09019 13.0707 3.61982 15.9682 1.09013 14.0707C-0.909752 12.5706 0.0900607 9.57056 2.09025 9.07056Z" transform="translate(38.9199 17.2263) rotate(78.5842)" stroke="white" stroke-width="2"/>
<line x1="1" y1="-1" x2="32.2415" y2="-1" transform="translate(17 20) rotate(43.7811)" stroke="white" stroke-width="2" stroke-linecap="round"/>
</svg>
