<svg width="60" height="60" viewBox="0 0 60 60" fill="none" xmlns="http://www.w3.org/2000/svg">
<circle opacity="0.2" cx="30" cy="30" r="30" fill="#EB5B25"/>
<ellipse cx="19.7802" cy="19.7802" rx="19.7802" ry="19.7802" transform="translate(10 11)" fill="#EB5B25"/>
<path d="M10.5 0L12.6359 1.83434L15.3796 1.20271L16.4184 3.81954L19.1413 4.53532L18.845 7.33515L20.9234 9.23436L19.3599 11.5758L20.3177 14.2234L17.8451 15.57L17.4628 18.3594L14.6477 18.4027L13.0128 20.6949L10.5 19.425L7.98719 20.6949L6.35235 18.4027L3.53721 18.3594L3.15487 15.57L0.682329 14.2234L1.64007 11.5758L0.0765572 9.23436L2.15498 7.33515L1.85867 4.53532L4.58163 3.81954L5.62041 1.20271L8.36411 1.83434L10.5 0Z" transform="translate(19 20)" stroke="white" stroke-width="2" stroke-linecap="square" stroke-linejoin="bevel"/>
<path d="M3.5 8L0 5.5L3 0L8 2.5L3.5 8Z" transform="translate(34 31.5)" fill="#EB5B25"/>
<path d="M2.23574 5.47507C4.02354 5.47507 5.47147 4.02482 5.47147 2.23753C5.47147 0.450252 4.02354 -1 2.23574 -1C0.447931 -1 -1 0.450252 -1 2.23753C-1 4.02482 0.447931 5.47507 2.23574 5.47507Z" transform="translate(27.834 28.374)" stroke="white" stroke-width="2"/>
<path d="M15.9068 6.97511L3.12883 6.53675C1.38374 6.47688 0 5.04486 0 3.29874V3.29874C0 1.48658 1.48634 0.0267504 3.29821 0.0593596L15.5072 0.27909" transform="matrix(0.865851 0.500301 -0.499699 0.866199 28.7126 26)" stroke="white" stroke-width="2" stroke-linecap="round"/>
</svg>
