<svg width="60" height="60" viewBox="0 0 60 60" fill="none" xmlns="http://www.w3.org/2000/svg">
<circle opacity="0.2" cx="30" cy="30" r="30" fill="#EB5B25"/>
<ellipse cx="19.7802" cy="19.7802" rx="19.7802" ry="19.7802" transform="translate(10.5494 10.5496)" fill="#EB5B25"/>
<path d="M2.10647 2.78418L2.10649 2.78417L6.00694 1.56081V8.98981L2.152 7.95352C1.67467 7.82514 1.35139 7.41303 1.35139 6.95058V3.77373C1.35139 3.32774 1.65245 2.92649 2.10647 2.78418ZM7.48332 8.98981V1.56081L11.3838 2.78417L11.3838 2.78418C11.8378 2.92649 12.1389 3.32774 12.1389 3.77373V6.95058C12.1389 7.41303 11.8156 7.82514 11.3383 7.95352L7.48332 8.98981ZM11.8423 1.43665L6.99132 -0.0846264C6.91418 -0.110746 6.83129 -0.125 6.74513 -0.125C6.65897 -0.125 6.57608 -0.110746 6.49894 -0.0846265L1.64798 1.43665C1.64798 1.43665 1.64798 1.43665 1.64798 1.43665C0.593324 1.76738 -0.125 2.70769 -0.125 3.77373V6.95058C-0.125 8.05601 0.646197 9.02084 1.75383 9.31846C1.75384 9.31846 1.75384 9.31846 1.75385 9.31846L6.00694 10.4618V11.6755C6.00694 12.0727 6.34328 12.3843 6.74513 12.3843C7.14698 12.3843 7.48332 12.0727 7.48332 11.6755V10.4618L11.7364 9.31846C11.7364 9.31846 11.7364 9.31846 11.7364 9.31846C12.8441 9.02084 13.6153 8.05601 13.6153 6.95058V3.77373C13.6153 2.70769 12.8969 1.76738 11.8423 1.43665Z" transform="matrix(-0.66737 -0.744726 0.742374 -0.669986 28.003 47.0002)" fill="white" stroke="white" stroke-width="0.25" stroke-linecap="round" stroke-linejoin="bevel"/>
<path d="M2.10647 2.78418L2.10649 2.78417L6.00694 1.56081V8.98981L2.152 7.95352C1.67467 7.82514 1.35139 7.41303 1.35139 6.95058V3.77373C1.35139 3.32774 1.65245 2.92649 2.10647 2.78418ZM7.48332 8.98981V1.56081L11.3838 2.78417L11.3838 2.78418C11.8378 2.92649 12.1389 3.32774 12.1389 3.77373V6.95058C12.1389 7.41303 11.8156 7.82514 11.3383 7.95352L7.48332 8.98981ZM11.8423 1.43665L6.99132 -0.0846264C6.91418 -0.110746 6.83129 -0.125 6.74513 -0.125C6.65897 -0.125 6.57608 -0.110746 6.49894 -0.0846265L1.64798 1.43665C1.64798 1.43665 1.64798 1.43665 1.64798 1.43665C0.593324 1.76738 -0.125 2.70769 -0.125 3.77373V6.95058C-0.125 8.05601 0.646197 9.02084 1.75383 9.31846C1.75384 9.31846 1.75384 9.31846 1.75385 9.31846L6.00694 10.4618V11.6755C6.00694 12.0727 6.34328 12.3843 6.74513 12.3843C7.14698 12.3843 7.48332 12.0727 7.48332 11.6755V10.4618L11.7364 9.31846C11.7364 9.31846 11.7364 9.31846 11.7364 9.31846C12.8441 9.02084 13.6153 8.05601 13.6153 6.95058V3.77373C13.6153 2.70769 12.8969 1.76738 11.8423 1.43665Z" transform="matrix(0.66737 0.744726 -0.742374 0.669986 32.9969 14)" fill="white" stroke="white" stroke-width="0.25" stroke-linecap="round" stroke-linejoin="bevel"/>
</svg>
