<svg width="60" height="60" viewBox="0 0 60 60" fill="none" xmlns="http://www.w3.org/2000/svg">
<circle opacity="0.2" cx="30" cy="30" r="30" fill="#EB5B25"/>
<ellipse cx="19.7802" cy="19.7802" rx="19.7802" ry="19.7802" transform="translate(10.5494 10.5496)" fill="#EB5B25"/>
<path d="M0 3.98076V0" transform="translate(30 18)" stroke="white" stroke-width="2" stroke-linecap="round"/>
<path d="M-0.911926 13.3011C-1.13856 13.8048 -0.913997 14.3968 -0.410355 14.6234C0.0932882 14.8501 0.685293 14.6255 0.911926 14.1219L-0.911926 13.3011ZM7.08192 0.410355C7.30855 -0.0932882 7.08399 -0.685293 6.58035 -0.911926C6.0767 -1.13856 5.4847 -0.913997 5.25807 -0.410355L7.08192 0.410355ZM0.911926 14.1219L7.08192 0.410355L5.25807 -0.410355L-0.911926 13.3011L0.911926 14.1219Z" transform="translate(22.0671 27.2886)" fill="white"/>
<path d="M-0.911926 13.3011C-1.13856 13.8048 -0.913997 14.3968 -0.410355 14.6234C0.0932882 14.8501 0.685293 14.6255 0.911926 14.1219L-0.911926 13.3011ZM7.08192 0.410355C7.30855 -0.0932882 7.08399 -0.685293 6.58035 -0.911926C6.0767 -1.13856 5.4847 -0.913997 5.25807 -0.410355L7.08192 0.410355ZM0.911926 14.1219L7.08192 0.410355L5.25807 -0.410355L-0.911926 13.3011L0.911926 14.1219Z" transform="translate(37.9329 27.2886) scale(-1 1)" fill="white"/>
<path d="M6.05142 3.53845C6.05142 4.9438 4.91722 6.0769 3.52571 6.0769C2.1342 6.0769 1 4.9438 1 3.53845C1 2.1331 2.1342 1 3.52571 1C4.91722 1 6.05142 2.1331 6.05142 3.53845Z" transform="translate(26.4742 21.5386)" stroke="white" stroke-width="2"/>
<path d="M0 0C2.065 2.02135 4.88758 3.26674 8 3.26674C11.1124 3.26674 13.935 2.02135 16 0" transform="translate(22 33.0386)" stroke="white" stroke-width="2" stroke-linecap="round"/>
</svg>
