<svg width="67" height="67" viewBox="0 0 67 67" fill="none" xmlns="http://www.w3.org/2000/svg">
<circle opacity="0.2" cx="33.5" cy="33.5" r="33.5" fill="#EB5B25"/>
<ellipse cx="22.0879" cy="22.0879" rx="22.0879" ry="22.0879" transform="translate(11.7803 11.7803)" fill="#EB5B25"/>
<path d="M14.4107 1.66767C14.7618 1.41153 15.2382 1.41153 15.5893 1.66767L16.1786 0.859771L15.5893 1.66767L17.8222 3.29648C18.3372 3.67214 18.9585 3.874 19.5959 3.87278L22.3598 3.86752C22.7944 3.86669 23.1798 4.1467 23.3133 4.56031L24.1624 7.19052C24.3582 7.79714 24.7422 8.32561 25.2586 8.69931L27.4977 10.3196C27.8498 10.5744 27.997 11.0275 27.8619 11.4406L27.0028 14.0675C26.8047 14.6734 26.8047 15.3266 27.0028 15.9325L27.8619 18.5594C27.997 18.9725 27.8498 19.4256 27.4977 19.6804L25.2586 21.3007C24.7422 21.6744 24.3582 22.2029 24.1624 22.8095L23.3133 25.4397C23.1798 25.8533 22.7944 26.1333 22.3598 26.1325L19.5959 26.1272C18.9585 26.126 18.3372 26.3279 17.8222 26.7035L15.5893 28.3323C15.2382 28.5885 14.7618 28.5885 14.4107 28.3323L12.1778 26.7035C11.6628 26.3279 11.0415 26.126 10.4041 26.1272L7.64023 26.1325C7.2056 26.1333 6.8202 25.8533 6.68668 25.4397L5.8376 22.8095C5.64178 22.2029 5.25782 21.6744 4.74141 21.3007L2.50231 19.6804C2.1502 19.4256 2.00299 18.9725 2.13809 18.5594L2.99717 15.9325C3.1953 15.3266 3.1953 14.6734 2.99717 14.0675L2.13809 11.4406C2.00299 11.0275 2.1502 10.5744 2.50231 10.3196L4.74141 8.69931C5.25782 8.32561 5.64178 7.79714 5.8376 7.19052L6.68668 4.56031C6.8202 4.1467 7.2056 3.86669 7.64023 3.86752L10.4041 3.87278C11.0415 3.874 11.6628 3.67214 12.1778 3.29648L14.4107 1.66767Z" transform="translate(19 19)" stroke="white" stroke-width="2" stroke-linecap="round" stroke-linejoin="round"/>
<circle cx="9.45046" cy="9.45046" r="8.45046" transform="translate(24.5259 24.5264)" stroke="white" stroke-width="2"/>
<path d="M0.8 1.37368C0.468629 0.931856 -0.158172 0.842313 -0.6 1.17368C-1.04183 1.50505 -1.13137 2.13186 -0.8 2.57368L0.8 1.37368ZM2.36842 5.13158L1.56842 5.73158L2.45001 6.90703L3.22008 5.65568L2.36842 5.13158ZM6.37797 0.524097C6.66743 0.0537396 6.52077 -0.562207 6.05041 -0.851658C5.58006 -1.14111 4.96411 -0.994455 4.67466 -0.524097L6.37797 0.524097ZM-0.8 2.57368L1.56842 5.73158L3.16842 4.53158L0.8 1.37368L-0.8 2.57368ZM3.22008 5.65568L6.37797 0.524097L4.67466 -0.524097L1.51676 4.60748L3.22008 5.65568Z" transform="translate(31.6318 31.6316)" fill="white"/>
</svg>
