<svg width="67" height="67" viewBox="0 0 67 67" fill="none" xmlns="http://www.w3.org/2000/svg">
<circle opacity="0.2" cx="33.5" cy="33.5" r="33.5" fill="#EB5B25"/>
<ellipse cx="22.0879" cy="22.0879" rx="22.0879" ry="22.0879" transform="translate(11.7803 11.7803)" fill="#EB5B25"/>
<path d="M17.1065 9.18186C17.1065 13.7139 13.4877 17.3637 9.05326 17.3637C4.61882 17.3637 1 13.7139 1 9.18186C1 4.6498 4.61882 1 9.05326 1C13.4877 1 17.1065 4.6498 17.1065 9.18186Z" transform="translate(25.0425 24.6436)" stroke="white" stroke-width="2"/>
<path d="M24.7139 13.0396C24.7139 19.7022 19.3921 25.0792 12.857 25.0792C6.32179 25.0792 1 19.7022 1 13.0396C1 6.37696 6.32179 1 12.857 1C19.3921 1 24.7139 6.37696 24.7139 13.0396Z" transform="translate(21.2607 20.8083)" stroke="white" stroke-width="2"/>
<path d="M32.2793 16.8736C32.2793 25.6535 25.264 32.7472 16.6396 32.7472C8.01522 32.7472 1 25.6535 1 16.8736C1 8.09363 8.01522 1 16.6396 1C25.264 1 32.2793 8.09363 32.2793 16.8736Z" transform="matrix(0.997395 0.0721274 -0.0701311 0.997538 18.8071 16)" stroke="white" stroke-width="2"/>
<path d="M12.6947 10.0965L2.07861 0L-2.50954e-05 12.2311L3.65956 26.4215L13.2736 15.5515L12.6947 10.0965Z" transform="matrix(0.966991 -0.254809 0.248164 0.968718 13 27.405)" fill="#EB5B25"/>
<path d="M0 -1C-0.552285 -1 -1 -0.552285 -1 0C-1 0.552285 -0.552285 1 0 1V-1ZM10.5478 0.707107C10.9383 0.316583 10.9383 -0.316583 10.5478 -0.707107L4.18383 -7.07107C3.79331 -7.46159 3.16014 -7.46159 2.76962 -7.07107C2.37909 -6.68054 2.37909 -6.04738 2.76962 -5.65685L8.42647 0L2.76962 5.65685C2.37909 6.04738 2.37909 6.68054 2.76962 7.07107C3.16014 7.46159 3.79331 7.46159 4.18383 7.07107L10.5478 0.707107ZM0 1H9.84068V-1H0V1Z" transform="matrix(0.966991 -0.254809 0.248164 0.968718 18.4746 39.5128)" fill="white"/>
<path d="M6.58992 3.82182C6.58992 5.38692 5.33194 6.64363 3.79496 6.64363C2.25798 6.64363 1 5.38692 1 3.82182C1 2.25671 2.25798 1 3.79496 1C5.33194 1 6.58992 2.25671 6.58992 3.82182Z" transform="matrix(0.862945 0.505298 -0.49472 0.869052 32.605 26.1777)" stroke="white" stroke-width="2"/>
<path d="M0 6.13628C0 6.13628 0.378179 0 4.53777 0C8.69736 0 9.07547 6.13628 9.07547 6.13628" transform="translate(29.5801 34.6151)" stroke="white" stroke-width="2"/>
</svg>
