<svg width="67" height="67" viewBox="0 0 67 67" fill="none" xmlns="http://www.w3.org/2000/svg">
<circle opacity="0.2" cx="33.5" cy="33.5" r="33.5" fill="#EB5B25"/>
<ellipse cx="22.0879" cy="22.0879" rx="22.0879" ry="22.0879" transform="translate(11.7803 11.7803)" fill="#EB5B25"/>
<line y1="-1" x2="15.2436" y2="-1" transform="matrix(0.711705 -0.702478 0.686448 0.727179 28.9653 39.5128)" stroke="white" stroke-width="2"/>
<line y1="-1" x2="14.1421" y2="-1" transform="translate(37 36) rotate(-135)" stroke="white" stroke-width="2"/>
<path d="M8.37101 2.93696C8.53026 3.39766 8.61643 3.89238 8.61643 4.40529C8.61643 6.83827 6.68758 8.81058 4.30822 8.81058C1.92885 8.81058 0 6.83827 0 4.40529C0 1.97232 1.92885 0 4.30822 0C4.80038 0 5.2754 0.0848276 5.71869 0.241828L2.70253 2.93696L5.71869 6.07013L8.37101 2.93696Z" transform="matrix(0.999837 0.0180664 -0.0172787 0.999851 36.3853 22)" fill="white"/>
<path d="M8.55963 2.87224C8.72246 3.32279 8.81058 3.8066 8.81058 4.30822C8.81058 6.68758 6.83827 8.61643 4.40529 8.61643C1.97232 8.61643 0 6.68758 0 4.30822C0 1.92885 1.97232 0 4.40529 0C4.90854 0 5.39427 0.0829583 5.84754 0.236499L2.76342 2.87224L5.84754 5.93637L8.55963 2.87224Z" transform="matrix(-0.0172787 0.999851 0.999837 0.0180664 21.1523 37.0352)" fill="white"/>
<path d="M1.17327 5.1594H2.78111C3.39063 5.1594 3.85837 4.61877 3.77071 4.01558L3.31153 0.856173C3.24008 0.36461 2.81865 0 2.32192 0H1.68028C1.18916 0 0.770731 0.356635 0.692914 0.841551L0.185904 4.00095C0.0883783 4.60868 0.557771 5.1594 1.17327 5.1594Z" transform="translate(21.834 24.9941) rotate(-45)" fill="white"/>
<mask id="path-8-inside-1" fill="white">
<rect width="5.53549" height="12.4549" rx="1"/>
</mask>
<rect width="5.53549" height="12.4549" rx="1" transform="translate(34 37.9142) rotate(-45)" stroke="white" stroke-width="4" mask="url(#path-8-inside-1)"/>
</svg>
