<svg width="60" height="60" viewBox="0 0 60 60" fill="none" xmlns="http://www.w3.org/2000/svg">
<circle opacity="0.2" cx="30" cy="30" r="30" fill="#EB5B25"/>
<ellipse cx="19.7802" cy="19.7802" rx="19.7802" ry="19.7802" transform="translate(10.5494 10.5496)" fill="#EB5B25"/>
<path d="M15.9998 0C15.9998 5.52285 16.1529 10 8 10C-0.152946 10 0.000200781 5.52285 0.000200781 0" transform="translate(22 26)" stroke="white" stroke-width="2"/>
<path d="M1 2C1 1.44772 1.44772 1 2 1H10C10.5523 1 11 1.44772 11 2V4H1V2Z" transform="translate(24 21)" stroke="white" stroke-width="2"/>
<line x1="1" y1="-1" x2="6" y2="-1" transform="translate(29 36) rotate(90)" stroke="white" stroke-width="2" stroke-linecap="round"/>
<line y1="-1" x2="2" y2="-1" transform="translate(23 25) rotate(-90)" stroke="white" stroke-width="2"/>
<line y1="-1" x2="2" y2="-1" transform="translate(39 25) rotate(-90)" stroke="white" stroke-width="2"/>
</svg>
