<svg width="60" height="60" viewBox="0 0 60 60" fill="none" xmlns="http://www.w3.org/2000/svg">
<circle opacity="0.2" cx="30" cy="30" r="30" fill="#EB5B25"/>
<ellipse cx="19.7802" cy="19.7802" rx="19.7802" ry="19.7802" transform="translate(10.5494 10.5496)" fill="#EB5B25"/>
<rect x="1" y="1" width="11" height="20" rx="2" transform="translate(24 19)" stroke="white" stroke-width="2" stroke-linecap="round" stroke-linejoin="round"/>
<path d="M0 3.54545L2.68629 1.64063C4.07223 0.657874 5.92777 0.657874 7.31371 1.64063L7.68629 1.90482C9.07223 2.88757 10.9278 2.88757 12.3137 1.90482L12.6863 1.64063C14.0722 0.657873 15.9278 0.657874 17.3137 1.64063L17.6863 1.90482C19.0722 2.88757 20.9278 2.88757 22.3137 1.90482L25 0" transform="translate(17 25.3638)" stroke="#EB5B25" stroke-width="4" stroke-linecap="round" stroke-linejoin="round"/>
<path d="M0 3.54545L2.68629 1.64063C4.07223 0.657874 5.92777 0.657874 7.31371 1.64063L7.68629 1.90482C9.07223 2.88757 10.9278 2.88757 12.3137 1.90482L12.6863 1.64063C14.0722 0.657873 15.9278 0.657874 17.3137 1.64063L17.6863 1.90482C19.0722 2.88757 20.9278 2.88757 22.3137 1.90482L25 0" transform="translate(17 30.0908)" stroke="#EB5B25" stroke-width="4" stroke-linecap="round" stroke-linejoin="round"/>
<path d="M0 3.54545L2.68629 1.64063C4.07223 0.657874 5.92777 0.657874 7.31371 1.64063L7.68629 1.90482C9.07223 2.88757 10.9278 2.88757 12.3137 1.90482L12.6863 1.64063C14.0722 0.657873 15.9278 0.657874 17.3137 1.64063L17.6863 1.90482C19.0722 2.88757 20.9278 2.88757 22.3137 1.90482L25 0" transform="translate(17 23)" stroke="white" stroke-width="2" stroke-linecap="round" stroke-linejoin="round"/>
<path d="M0 3.54545L2.68629 1.64063C4.07223 0.657874 5.92777 0.657874 7.31371 1.64063L7.68629 1.90482C9.07223 2.88757 10.9278 2.88757 12.3137 1.90482L12.6863 1.64063C14.0722 0.657873 15.9278 0.657874 17.3137 1.64063L17.6863 1.90482C19.0722 2.88757 20.9278 2.88757 22.3137 1.90482L25 0" transform="translate(17 27.7271)" stroke="white" stroke-width="2" stroke-linecap="round" stroke-linejoin="round"/>
<path d="M0 3.54545L2.68629 1.64063C4.07223 0.657874 5.92777 0.657874 7.31371 1.64063L7.68629 1.90482C9.07223 2.88757 10.9278 2.88757 12.3137 1.90482L12.6863 1.64063C14.0722 0.657873 15.9278 0.657874 17.3137 1.64063L17.6863 1.90482C19.0722 2.88757 20.9278 2.88757 22.3137 1.90482L25 0" transform="translate(17 32.4546)" stroke="white" stroke-width="2" stroke-linecap="round" stroke-linejoin="round"/>
<rect width="2" height="14" transform="translate(24 23)" fill="white"/>
<rect width="1" height="14" transform="translate(26 23)" fill="#EB5B25"/>
</svg>
