<svg width="60" height="60" viewBox="0 0 60 60" fill="none" xmlns="http://www.w3.org/2000/svg">
<circle opacity="0.2" cx="30" cy="30" r="30" fill="#EB5B25"/>
<ellipse cx="19.7802" cy="19.7802" rx="19.7802" ry="19.7802" transform="translate(10.5493 10.5496)" fill="#EB5B25"/>
<rect x="1" y="1" width="14" height="14" rx="2" transform="translate(22 23)" stroke="white" stroke-width="2"/>
<line x1="1" y1="-1" x2="3" y2="-1" transform="translate(23 18) rotate(90)" stroke="white" stroke-width="2" stroke-linecap="round"/>
<line x1="1" y1="-1" x2="3" y2="-1" transform="translate(27 18) rotate(90)" stroke="white" stroke-width="2" stroke-linecap="round"/>
<line x1="1" y1="-1" x2="3" y2="-1" transform="translate(31 18) rotate(90)" stroke="white" stroke-width="2" stroke-linecap="round"/>
<line x1="1" y1="-1" x2="3" y2="-1" transform="translate(35 18) rotate(90)" stroke="white" stroke-width="2" stroke-linecap="round"/>
<line x1="1" y1="-1" x2="3" y2="-1" transform="translate(23 40) rotate(90)" stroke="white" stroke-width="2" stroke-linecap="round"/>
<line x1="1" y1="-1" x2="3" y2="-1" transform="translate(27 40) rotate(90)" stroke="white" stroke-width="2" stroke-linecap="round"/>
<line x1="1" y1="-1" x2="3" y2="-1" transform="translate(31 40) rotate(90)" stroke="white" stroke-width="2" stroke-linecap="round"/>
<line x1="1" y1="-1" x2="3" y2="-1" transform="translate(35 40) rotate(90)" stroke="white" stroke-width="2" stroke-linecap="round"/>
<line x1="1" y1="-1" x2="3" y2="-1" transform="translate(21 24) rotate(-180)" stroke="white" stroke-width="2" stroke-linecap="round"/>
<line x1="1" y1="-1" x2="3" y2="-1" transform="translate(21 28) rotate(-180)" stroke="white" stroke-width="2" stroke-linecap="round"/>
<line x1="1" y1="-1" x2="3" y2="-1" transform="translate(21 32) rotate(-180)" stroke="white" stroke-width="2" stroke-linecap="round"/>
<line x1="1" y1="-1" x2="3" y2="-1" transform="translate(21 36) rotate(-180)" stroke="white" stroke-width="2" stroke-linecap="round"/>
<line x1="1" y1="-1" x2="3" y2="-1" transform="translate(43 24) rotate(-180)" stroke="white" stroke-width="2" stroke-linecap="round"/>
<line x1="1" y1="-1" x2="3" y2="-1" transform="translate(43 28) rotate(-180)" stroke="white" stroke-width="2" stroke-linecap="round"/>
<line x1="1" y1="-1" x2="3" y2="-1" transform="translate(43 32) rotate(-180)" stroke="white" stroke-width="2" stroke-linecap="round"/>
<line x1="1" y1="-1" x2="3" y2="-1" transform="translate(43 36) rotate(-180)" stroke="white" stroke-width="2" stroke-linecap="round"/>
</svg>
