<svg width="60" height="60" viewBox="0 0 60 60" fill="none" xmlns="http://www.w3.org/2000/svg">
<circle opacity="0.2" cx="30" cy="30" r="30" fill="#EB5B25"/>
<ellipse cx="19.7802" cy="19.7802" rx="19.7802" ry="19.7802" transform="translate(10 11)" fill="#EB5B25"/>
<circle cx="1" cy="1" r="2" transform="translate(29 30)" stroke="white" stroke-width="2"/>
<circle cx="1" cy="1" r="2" transform="translate(37 36)" stroke="white" stroke-width="2"/>
<circle cx="1" cy="1" r="2" transform="translate(21 24)" stroke="white" stroke-width="2"/>
<line x1="1" y1="-1" x2="15" y2="-1" transform="translate(21 27) rotate(90)" stroke="white" stroke-width="2" stroke-linecap="round"/>
<line x1="1" y1="-1" x2="3" y2="-1" transform="translate(21 19) rotate(90)" stroke="white" stroke-width="2" stroke-linecap="round"/>
<line x1="1" y1="-1" x2="9" y2="-1" transform="translate(29 19) rotate(90)" stroke="white" stroke-width="2" stroke-linecap="round"/>
<line x1="1" y1="-1" x2="15" y2="-1" transform="translate(37 19) rotate(90)" stroke="white" stroke-width="2" stroke-linecap="round"/>
<line x1="1" y1="-1" x2="9" y2="-1" transform="translate(29 33) rotate(90)" stroke="white" stroke-width="2" stroke-linecap="round"/>
<line x1="1" y1="-1" x2="3" y2="-1" transform="translate(37 39) rotate(90)" stroke="white" stroke-width="2" stroke-linecap="round"/>
</svg>
