<svg width="60" height="60" viewBox="0 0 60 60" fill="none" xmlns="http://www.w3.org/2000/svg">
<circle opacity="0.2" cx="30" cy="30" r="30" fill="#EB5B25"/>
<ellipse cx="19.7802" cy="19.7802" rx="19.7802" ry="19.7802" transform="translate(10.5494 10.5496)" fill="#EB5B25"/>
<path fill-rule="evenodd" clip-rule="evenodd" d="M9.00806 0.353203C8.8916 0.215874 8.73767 0.109306 8.55823 0.0502243C8.34998 -0.0183792 8.1311 -0.0150833 7.93274 0.0502243C7.92358 0.053276 7.91467 0.0562057 7.90564 0.0595016C7.72424 0.125053 7.5614 0.242973 7.44116 0.405815L0.29834 10.0732L0 10.477L0.14563 10.9575L2.34338 18.2079L2.55859 18.9179H3.30042H8.24548H13.1906H13.9324L14.1476 18.2079L16.3453 10.9575L16.491 10.477L16.1926 10.0732L9.0498 0.405815C9.03638 0.387749 9.02246 0.370171 9.00806 0.353203ZM9.24548 4.03631V9.45892H7.24548V4.03631L2.20532 10.8578L4.04224 16.9179H8.24548H12.4487L14.2856 10.8578L9.24548 4.03631Z" transform="translate(22.2545 24.123)" fill="white"/>
<path d="M4.35714 2.67123C4.35714 3.59164 3.60821 4.34246 2.67857 4.34246C1.74893 4.34246 1 3.59164 1 2.67123C1 1.75082 1.74893 1 2.67857 1C3.60821 1 4.35714 1.75082 4.35714 2.67123Z" transform="translate(27.8214 32.2411)" stroke="white" stroke-width="2"/>
<path d="M4.35714 2.67123C4.35714 3.59164 3.60821 4.34246 2.67857 4.34246C1.74893 4.34246 1 3.59164 1 2.67123C1 1.75082 1.74893 1 2.67857 1C3.60821 1 4.35714 1.75082 4.35714 2.67123Z" transform="translate(18 18)" stroke="white" stroke-width="2"/>
<path d="M4.35714 2.67123C4.35714 3.59164 3.60821 4.34246 2.67857 4.34246C1.74893 4.34246 1 3.59164 1 2.67123C1 1.75082 1.74893 1 2.67857 1C3.60821 1 4.35714 1.75082 4.35714 2.67123Z" transform="translate(37.6428 18)" stroke="white" stroke-width="2"/>
<path d="M4.35714 2.67123C4.35714 3.59164 3.60821 4.34246 2.67857 4.34246C1.74893 4.34246 1 3.59164 1 2.67123C1 1.75082 1.74893 1 2.67857 1C3.60821 1 4.35714 1.75082 4.35714 2.67123Z" transform="translate(27.8214 18)" stroke="white" stroke-width="2"/>
<path d="M0 8.0137C2.06667 3.29655 6.78653 0 12.2785 0C17.7704 0 22.4902 3.29655 24.5569 8.0137" transform="translate(18.2216 21.5616)" stroke="white" stroke-width="2" stroke-linecap="round"/>
<line x1="1" y1="-1" x2="15.9643" y2="-1" transform="translate(21.5714 21.5616)" stroke="white" stroke-width="2" stroke-linecap="round"/>
</svg>
