<svg width="60" height="60" viewBox="0 0 60 60" fill="none" xmlns="http://www.w3.org/2000/svg">
<circle opacity="0.2" cx="30" cy="30" r="30" fill="#EB5B25"/>
<ellipse cx="19.7802" cy="19.7802" rx="19.7802" ry="19.7802" transform="translate(10 11)" fill="#EB5B25"/>
<path d="M11.5 23C12.9293 23 14.2977 22.7393 15.5602 22.2627C19.9079 20.6218 23 16.422 23 11.5C23 5.14873 17.8513 0 11.5 0C5.14873 0 0 5.14873 0 11.5C0 12.1354 0.0515245 12.7587 0.150623 13.366" transform="translate(13.4832 28.6096) rotate(-41.1228)" stroke="white" stroke-width="2" stroke-linecap="round"/>
<line x1="1" y1="-1" x2="9.63015" y2="-1" transform="translate(35 23) rotate(131.186)" stroke="white" stroke-width="2" stroke-linecap="round"/>
<path d="M4.35714 2.67123C4.35714 3.59164 3.60821 4.34246 2.67857 4.34246C1.74893 4.34246 1 3.59164 1 2.67123C1 1.75082 1.74893 1 2.67857 1C3.60821 1 4.35714 1.75082 4.35714 2.67123Z" transform="translate(27 28)" stroke="white" stroke-width="2"/>
</svg>
