<svg width="65" height="25" viewBox="0 0 65 25" fill="none" xmlns="http://www.w3.org/2000/svg">
<path d="M4.83982 0H0.413532C0.185144 0 0 0.185097 0 0.413426V24.077C0 24.3054 0.185144 24.4904 0.413532 24.4904H4.83982C5.0682 24.4904 5.25335 24.3054 5.25335 24.077V0.413426C5.25335 0.185097 5.0682 0 4.83982 0Z" transform="translate(17.8552 0.0269775)" fill="white"/>
<path d="M11.735 24.3424L0.0361736 0.54945C0.00975964 0.495468 -0.00253634 0.435673 0.000434699 0.375652C0.00340574 0.315631 0.0215453 0.257342 0.0531613 0.206232C0.084777 0.155121 0.128838 0.112857 0.181224 0.0833869C0.23361 0.0539176 0.292612 0.0382046 0.35272 0.0377162L5.37304 9.52224e-06C5.44106 -0.000488153 5.5078 0.0185319 5.56534 0.0548133C5.62289 0.0910949 5.66881 0.143115 5.69767 0.204703L12.228 14.2437L18.8823 0.21009C18.9113 0.148753 18.9573 0.097012 19.0148 0.0609786C19.0723 0.0249454 19.139 0.00612565 19.2068 0.00674288L24.2541 0.0565696C24.3144 0.0572886 24.3734 0.0732995 24.4258 0.1031C24.4782 0.132899 24.5221 0.175511 24.5534 0.226936C24.5848 0.27836 24.6026 0.336911 24.6052 0.397093C24.6077 0.457275 24.5949 0.517115 24.5679 0.570996L12.6402 24.3464C12.598 24.4305 12.5332 24.5012 12.453 24.5505C12.3728 24.5997 12.2804 24.6256 12.1863 24.6252C12.0922 24.6247 12.0001 24.598 11.9203 24.548C11.8406 24.4981 11.7764 24.4269 11.735 24.3424Z" transform="translate(25.6155 0.0283203)" fill="white"/>
<path d="M2.08417 18.6006C2.10567 18.5596 2.13549 18.5231 2.17185 18.4935C2.2082 18.4639 2.25035 18.4417 2.29577 18.4282C2.34119 18.4147 2.38895 18.4102 2.4362 18.415C2.48345 18.4198 2.52922 18.4337 2.57078 18.4561C3.87735 19.1595 4.50511 19.3588 5.12479 19.4409C5.29486 19.4638 5.4667 19.472 5.63828 19.4656C5.72296 19.4591 5.80765 19.4552 5.89368 19.4539C5.97971 19.4526 6.05902 19.4252 6.14371 19.4161C6.47298 19.3552 6.79044 19.2449 7.08466 19.0892C7.67514 18.7623 8.14134 18.2599 8.41411 17.6562C8.53969 17.3542 8.61632 17.0352 8.64129 16.7105V16.5868V16.5255V16.4929V15.0704V7.79643L8.65335 0.465049C8.65335 0.34171 8.70394 0.223423 8.79391 0.13621C8.88388 0.048996 9.00596 0 9.13325 0H13.4213C13.5483 -4.82988e-07 13.6702 0.0488167 13.7602 0.135749C13.8501 0.222681 13.9008 0.340633 13.9012 0.463746L13.9133 7.79508V15.0692V16.4903V16.5711L13.9066 16.7365L13.8891 17.0674C13.8223 17.9538 13.608 18.824 13.2546 19.6441C12.7138 20.8744 11.8654 21.9549 10.7859 22.788C9.70633 23.621 8.42967 24.1804 7.07122 24.4157C6.84538 24.4496 6.61955 24.486 6.3991 24.5095C6.17865 24.533 5.94476 24.5355 5.71759 24.5434C5.26183 24.5508 4.80627 24.5203 4.35589 24.4522C3.23751 24.2907 1.2642 23.6276 0.17269 22.9958C0.0956635 22.9514 0.0389326 22.8802 0.0139767 22.7968C-0.0109792 22.7134 -0.00229632 22.6239 0.0382684 22.5464L2.08417 18.6006Z" fill="white"/>
<path d="M11.8303 5.94413C11.8087 5.98518 11.7789 6.02161 11.7426 6.05125C11.7062 6.08089 11.664 6.10312 11.6187 6.11661C11.5732 6.13011 11.5255 6.1346 11.4782 6.12981C11.4309 6.12502 11.3851 6.11104 11.3436 6.08873C10.0369 5.38525 9.40909 5.18594 8.78934 5.10387C8.6206 5.08119 8.45007 5.0729 8.27983 5.07911C8.19514 5.08563 8.11044 5.08954 8.0244 5.09084C7.93835 5.09214 7.85908 5.1195 7.77439 5.12862C7.44503 5.18958 7.12757 5.29989 6.83332 5.45561C6.24275 5.78242 5.77653 6.2849 5.50376 6.8886C5.37816 7.1906 5.30152 7.50968 5.27657 7.83439V7.95811V8.0194V8.05194V9.47452V16.749L5.26446 24.0807C5.26411 24.2038 5.21339 24.3218 5.12343 24.4087C5.03346 24.4957 4.91159 24.5445 4.78453 24.5445H0.492031C0.364978 24.5445 0.243109 24.4957 0.153142 24.4087C0.0631765 24.3218 0.0124586 24.2038 0.0121028 24.0807L0 16.749V9.47452V8.05322V7.97245L0.0067242 7.80699L0.0242014 7.47614C0.0909772 6.58967 0.305255 5.71951 0.658733 4.89934C1.19963 3.66932 2.04804 2.58915 3.12741 1.75629C4.20679 0.923435 5.48317 0.364102 6.84139 0.128754C7.06723 0.0948822 7.29306 0.0584061 7.51353 0.034957C7.734 0.0115079 7.96796 0.00890251 8.19514 0.00108614C8.65092 -0.00632308 9.10656 0.0241858 9.557 0.0922772C10.6755 0.253815 12.649 0.9169 13.7405 1.54873C13.8176 1.59316 13.8743 1.6643 13.8993 1.74774C13.9243 1.83118 13.9156 1.9207 13.875 1.99817L11.8303 5.94413Z" transform="translate(51.0867)" fill="white"/>
</svg>
