<svg width="18" height="42" viewBox="0 0 18 42" fill="none" xmlns="http://www.w3.org/2000/svg">
<g opacity="0.25">
<path fill-rule="evenodd" clip-rule="evenodd" d="M1.5 9.00555V22.4944C1.5 26.6414 4.85717 30 9 30C13.1426 30 16.5 26.6403 16.5 22.4944V9.00555C16.5 4.85862 13.1428 1.5 9 1.5C4.85738 1.5 1.5 4.85974 1.5 9.00555ZM0 9.00555C0 4.03192 4.02834 0 9 0C13.9706 0 18 4.02951 18 9.00555V22.4944C18 27.4681 13.9717 31.5 9 31.5C4.02944 31.5 0 27.4705 0 22.4944V9.00555Z" fill="white"/>
<path fill-rule="evenodd" clip-rule="evenodd" d="M0 0.75V3.75C0 4.16421 0.335786 4.5 0.75 4.5C1.16421 4.5 1.5 4.16421 1.5 3.75V0.75C1.5 0.335786 1.16421 0 0.75 0C0.335786 0 0 0.335786 0 0.75Z" transform="translate(8.25 4.5)" fill="white"/>
<path fill-rule="evenodd" clip-rule="evenodd" d="M5.44089 4.38023L9.56576 0.255347C9.85866 -0.0375463 10.3335 -0.0375463 10.6264 0.255347C10.9193 0.54824 10.9193 1.02311 10.6264 1.31601L5.97122 5.97121C5.82477 6.11766 5.63283 6.19089 5.44089 6.19089C5.24894 6.19089 5.057 6.11766 4.91055 5.97121L0.21967 1.28033C-0.0732233 0.987438 -0.0732233 0.512563 0.21967 0.21967C0.512563 -0.0732233 0.987435 -0.0732233 1.28033 0.21967L5.44089 4.38023Z" transform="translate(3.55908 35.3645)" fill="white"/>
</g>
</svg>
