<svg width="43" height="34" viewBox="0 0 43 34" fill="none" xmlns="http://www.w3.org/2000/svg">
<path opacity="0.1" d="M2.64804 34C0.882646 28.963 0 23.9679 0 19.0148C0 13.3062 1.51312 8.73087 4.53952 5.2889C7.56591 1.76297 11.9795 0 17.7801 0V7.93333C13.3245 7.93333 11.0967 10.7877 11.0967 16.4963V18.3852H19.1671V34H2.64804ZM26.4809 34C24.7995 28.879 23.9589 23.884 23.9589 19.0148C23.9589 13.3062 25.4301 8.73087 28.3724 5.2889C31.3988 1.76297 35.8123 0 41.6129 0V7.93333C37.2414 7.93333 35.0557 10.7877 35.0557 16.4963V18.3852H43V34H26.4809Z" fill="#E6E6E6"/>
</svg>
